<svg width="22" height="22" viewBox="0 0 22 22" fill="none" xmlns="http://www.w3.org/2000/svg">
<g id="vuesax/outline/arrow-up">
<g id="arrow-up">
<path id="Vector" d="M12.5401 16.5642C12.5401 16.39 12.6042 16.2158 12.7417 16.0783L17.8201 11L12.7417 5.92165C12.4759 5.65582 12.4759 5.21582 12.7417 4.94999C13.0076 4.68415 13.4476 4.68415 13.7134 4.94999L19.2776 10.5142C19.5434 10.78 19.5434 11.22 19.2776 11.4858L13.7134 17.05C13.4476 17.3158 13.0076 17.3158 12.7417 17.05C12.6042 16.9217 12.5401 16.7383 12.5401 16.5642Z" fill="#292D32"/>
<path id="Vector_2" d="M2.52086 11C2.52086 10.6242 2.83253 10.3125 3.20836 10.3125L18.6359 10.3125C19.0117 10.3125 19.3234 10.6242 19.3234 11C19.3234 11.3758 19.0117 11.6875 18.6359 11.6875L3.20836 11.6875C2.83253 11.6875 2.52086 11.3758 2.52086 11Z" fill="#292D32"/>
</g>
</g>
</svg>
