<svg width="21" height="20" viewBox="0 0 21 20" fill="none" xmlns="http://www.w3.org/2000/svg">
<path d="M1.66675 8.33326V11.6666C1.66675 13.3333 2.50008 14.1666 4.16675 14.1666H5.35841C5.66675 14.1666 5.97508 14.2583 6.24175 14.4166L8.67508 15.9416C10.7751 17.2583 12.5001 16.2999 12.5001 13.8249V6.17493C12.5001 3.69159 10.7751 2.74159 8.67508 4.05826L6.24175 5.58326C5.97508 5.74159 5.66675 5.83326 5.35841 5.83326H4.16675C2.50008 5.83326 1.66675 6.66659 1.66675 8.33326Z" fill="#185ADB"/>
<path d="M15 6.66663C16.4833 8.64163 16.4833 11.3583 15 13.3333" stroke="#185ADB" stroke-width="1.5" stroke-linecap="round" stroke-linejoin="round"/>
<path d="M17.525 4.58337C19.9334 7.79171 19.9334 12.2084 17.525 15.4167" stroke="#185ADB" stroke-width="1.5" stroke-linecap="round" stroke-linejoin="round"/>
</svg>
