<svg width='48' height='48' viewBox="0 0 48 48">
<path fill='current' fill-rule="evenodd" clip-rule="evenodd" d="M35.8228 23.0891C34.7042 22.0081 33.2915 21.2741 31.7598 20.9751V11.4481C32.4853 10.8831 33.0667 10.4621 33.5001 10.0381C34.9602 8.62809 35.7956 6.70009 35.8228 4.67909V3.12809C35.9236 2.61409 35.586 2.11709 35.068 2.01709C34.9834 2.00109 34.8957 1.99609 34.8101 2.00309H13.193C12.9028 2.00309 12.7566 2.14409 12.4674 2.28509C12.1782 2.42609 12.1782 2.85009 12.1782 2.98009V4.55009C12.2195 7.29009 13.7815 9.78409 16.2402 11.0341V20.5531C14.6975 20.8201 13.2766 21.5591 12.1782 22.6671C10.7624 24.0371 9.97539 25.9221 10.0006 27.8841V30.2811C9.99353 30.8201 10.4278 31.2611 10.971 31.2681C10.9861 31.2681 11.0002 31.2681 11.0153 31.2671H20.3033L22.9132 45.1621C23.012 45.6421 23.4342 45.9911 23.929 46.0001C24.197 45.9951 24.455 45.8941 24.6545 45.7171C24.8067 45.5621 24.9074 45.3651 24.9437 45.1521L27.6998 31.6891H36.9847C37.2527 31.6841 37.5107 31.5841 37.7102 31.4071C37.8886 31.2171 37.9914 30.9701 37.9994 30.7121V28.3061C38.0246 26.3441 37.2376 24.4591 35.8228 23.0891Z">
</path>
</svg>