<svg width="28" height="28" viewBox="0 0 28 28" fill="current" xmlns="http://www.w3.org/2000/svg">
<g id="vuesax/bulk/heart-edit">
<g id="heart-edit">
<path id="Vector" d="M13.5996 6.51784L14 7.05297L14.4003 6.51784C15.4887 5.06305 17.2332 4.11667 19.18 4.11667C22.4832 4.11667 25.1666 6.80713 25.1666 10.1383C25.1666 11.4723 24.9538 12.7037 24.5842 13.8461L24.5832 13.8493C23.6973 16.6527 21.8831 18.9092 19.9289 20.5887C17.9725 22.2701 15.9046 23.3483 14.5623 23.805L14.5622 23.8049L14.5569 23.8068C14.4287 23.8521 14.2267 23.8833 14 23.8833C13.7732 23.8833 13.5712 23.8521 13.4431 23.8068L13.4431 23.8068L13.4377 23.805C12.0954 23.3483 10.0275 22.2701 8.07108 20.5887C6.11689 18.9092 4.30261 16.6527 3.41674 13.8493L3.41675 13.8493L3.4157 13.8461C3.04612 12.7037 2.83331 11.4723 2.83331 10.1383C2.83331 6.80713 5.51679 4.11667 8.81998 4.11667C10.7667 4.11667 12.5112 5.06305 13.5996 6.51784Z" stroke="current" />
</g>
</g>
</svg>
