<svg width="160" height="58" viewBox="0 0 160 58" fill="none" xmlns="http://www.w3.org/2000/svg">
<path d="M81.656 20.56V31.12H86.904V19.6H88.472V50L86.904 49.968V32.656H81.656V48.4L80.088 48.368V20.56H81.656ZM61.72 23.952L61.752 22.416H75.224V23.952H67.544C65.144 24.336 63.48 26.64 63.48 29.04V39.152C63.48 41.2 64.056 41.936 66.296 42C66.904 42 71.16 42 76.12 41.68V43.184C71.192 43.504 66.904 43.504 66.04 43.504C63.032 43.472 61.848 41.872 61.944 39.6V28.72C61.88 26.512 63.352 25.136 65.112 24.24V23.952H61.72ZM113.656 20.56V27.408H118.904V19.6H120.472V37.488H118.904V28.912H113.656V36.848H112.088V20.56H113.656ZM97.816 22.416V20.912H106.84V22.416H97.816ZM95 26.096V24.592H109.464V26.096H95ZM95.448 32.784C95.448 29.872 98.04 27.376 102.296 27.376C106.584 27.376 109.144 29.872 109.144 32.784C109.144 35.696 106.584 38.192 102.296 38.192C98.04 38.192 95.448 35.696 95.448 32.784ZM97.016 32.784C97.016 34.736 98.84 36.656 102.296 36.656C105.752 36.656 107.576 34.736 107.576 32.784C107.576 30.832 105.784 28.88 102.296 28.88C98.808 28.88 97.016 30.832 97.016 32.784ZM98.136 44.88C98.136 41.84 102.456 39.632 109.144 39.632C115.8 39.632 120.152 41.84 120.152 44.88C120.152 47.92 115.8 50.128 109.144 50.128C102.456 50.128 98.136 47.92 98.136 44.88ZM118.456 44.88C118.456 42.736 114.52 41.136 109.144 41.136C103.736 41.136 99.832 42.736 99.832 44.88C99.832 47.024 103.736 48.56 109.144 48.56C114.52 48.56 118.456 47.024 118.456 44.88ZM148.792 19.6V31.12H154.392V32.656H148.792V49.648H147.224L147.256 19.6H148.792ZM124.504 42.448L122.904 41.072C125.592 40.144 127.992 37.68 129.944 34.608C132.6 30.352 133.848 24.656 134.296 21.712L135.768 21.872C135.544 25.072 133.624 31.344 132.6 32.56C133.176 32.08 133.816 31.888 134.456 31.888C138.136 31.888 142.552 38.32 143.672 40.336L142.648 42.288C141.112 39.056 137.24 33.104 134.104 33.104C133.368 33.104 132.696 33.424 132.088 34.16C130.296 37.2 127.448 41.232 124.504 42.448Z" fill="black"/>
<path d="M46.583 50.5874L17.3807 20.2893L21.3375 16.9212L46.583 50.5874Z" fill="#185ADB"/>
<path d="M56 33L14 35.5981V30.4019L56 33Z" fill="#185ADB"/>
<path d="M48.587 16.1138L20.8369 47.7474L17.1498 44.0861L48.587 16.1138Z" fill="#185ADB"/>
<path d="M32 56L29.4019 14H34.5981L32 56Z" fill="#185ADB"/>
</svg>
