<svg width="20" height="20" viewBox="0 0 20 20" fill="none" xmlns="http://www.w3.org/2000/svg">
<path fill-rule="evenodd" clip-rule="evenodd" d="M14.1763 4.29289C14.5669 3.90237 15.2 3.90237 15.5906 4.29289C15.9811 4.68342 15.9811 5.31658 15.5906 5.70711L11.3559 9.94172L15.5906 14.1763C15.9811 14.5669 15.9811 15.2 15.5906 15.5906C15.2 15.9811 14.5669 15.9811 14.1764 15.5906L9.94173 11.3559L5.70711 15.5906C5.31658 15.9811 4.68342 15.9811 4.29289 15.5906C3.90237 15.2 3.90237 14.5669 4.29289 14.1763L8.52752 9.94172L4.29291 5.70711C3.90238 5.31658 3.90238 4.68342 4.29291 4.29289C4.68343 3.90237 5.3166 3.90237 5.70712 4.29289L9.94173 8.5275L14.1763 4.29289Z" fill="#7C7C7C"/>
</svg>
